<svg xmlns="http://www.w3.org/2000/svg" viewBox="0 0 490.83 300.09"><defs><style>.cls-1{fill:#2b2361;}.cls-2{fill:#2a3489;}.cls-3{fill:#2f4a99;}.cls-4{fill:#fff;}</style></defs><g id="Capa_2" data-name="Capa 2"><g id="Capa_1-2" data-name="Capa 1"><path class="cls-1" d="M175.79,177.64a3.57,3.57,0,0,1-2.93,1.79h-5c-1.24,0-2.34-.76-3.28-2.28a9.86,9.86,0,0,1-1.42-5.34V145.63a9.91,9.91,0,0,1,1.43-5.33c.95-1.53,2-2.29,3.29-2.29h5c1.25,0,2.35.77,3.32,2.32a9.84,9.84,0,0,1,1.45,5.35v1.21c0,1.25-.39,1.88-1.17,1.88h-2.38c-.77,0-1.15-.63-1.15-1.88v-1.24h-5.06v26.13h5.06v-1.45c0-1.26.38-1.9,1.15-1.9h2.38c.78,0,1.17.64,1.17,1.9v1.45A9.74,9.74,0,0,1,175.79,177.64Z"/><path class="cls-1" d="M191,179.43h-6.63a3.75,3.75,0,0,1-3.16-2.14,9.65,9.65,0,0,1-1.31-5.14V139.91c0-1.27.39-1.9,1.17-1.9h9.84c.77,0,1.16.63,1.16,1.9v3.87c0,1.25-.39,1.87-1.16,1.87h-6.31v9.23h5.27c.78,0,1.17.64,1.17,1.9v3.88c0,1.26-.39,1.9-1.17,1.9h-5.27v9.22H191c.78,0,1.17.64,1.17,1.9v3.85C192.15,178.8,191.76,179.43,191,179.43Z"/><path class="cls-1" d="M204,178.22l-4.84-20.49v19.8c0,1.27-.39,1.9-1.17,1.9h-2.35c-.78,0-1.17-.63-1.17-1.9V139.91c0-1.27.39-1.9,1.17-1.9h3.08c.52,0,.88.4,1.08,1.21l4.87,20.51V139.91c0-1.27.39-1.9,1.16-1.9h2.34c.78,0,1.17.63,1.17,1.9v37.6c0,1.24-.39,1.87-1.16,1.87l-3.08,0C204.51,179.42,204.15,179,204,178.22Z"/><path class="cls-1" d="M224.44,145.65h-3.5v31.88c0,1.27-.39,1.9-1.17,1.9h-2.38c-.78,0-1.17-.63-1.17-1.9V145.65h-3.5c-.78,0-1.16-.62-1.16-1.87v-3.87c0-1.27.38-1.9,1.16-1.9h11.72c.78,0,1.17.63,1.17,1.9v3.87C225.61,145,225.22,145.65,224.44,145.65Z"/><path class="cls-1" d="M241.33,179.43h-2.54c-.52,0-.88-.4-1.07-1.21L234,162.56H232.6v15c0,1.27-.39,1.9-1.17,1.9h-2.38c-.78,0-1.17-.63-1.17-1.9V139.91c0-1.27.39-1.9,1.17-1.9h8.28c1.24,0,2.35.77,3.31,2.3a9.94,9.94,0,0,1,1.44,5.37v9.18a10.38,10.38,0,0,1-.92,4.4,6.23,6.23,0,0,1-2.27,2.79l3.53,14.8a2.81,2.81,0,0,1-.11,1.76C242.07,179.16,241.75,179.43,241.33,179.43Zm-4-24.55v-9.23H232.6v9.23Z"/><path class="cls-1" d="M255,179.43h-5.36c-1.26,0-2.35-.76-3.29-2.27a9.85,9.85,0,0,1-1.41-5.32V145.63a9.9,9.9,0,0,1,1.42-5.33c.94-1.53,2-2.29,3.28-2.29H255c1.24,0,2.34.76,3.3,2.29a9.93,9.93,0,0,1,1.43,5.35v26.16a9.87,9.87,0,0,1-1.43,5.34C257.31,178.67,256.22,179.43,255,179.43Zm0-7.65V145.65h-5.36v26.13Z"/><path class="cls-1" d="M279.51,165.38h-4.73v12.15c0,1.27-.39,1.9-1.15,1.9h-2.39c-.77,0-1.16-.63-1.16-1.9V139.91c0-1.27.39-1.9,1.16-1.9h8.29c1.23,0,2.33.77,3.29,2.3a9.94,9.94,0,0,1,1.44,5.37v12a9.9,9.9,0,0,1-1.44,5.38C281.86,164.61,280.75,165.38,279.51,165.38Zm.05-7.65V145.65h-4.78v12.08Z"/><path class="cls-1" d="M296.6,179.43h-5.37c-1.25,0-2.35-.76-3.29-2.27a9.85,9.85,0,0,1-1.41-5.32V145.63A9.9,9.9,0,0,1,288,140.3c.94-1.53,2-2.29,3.28-2.29h5.35c1.24,0,2.34.76,3.3,2.29a9.84,9.84,0,0,1,1.43,5.35v26.16a9.78,9.78,0,0,1-1.43,5.34C298.92,178.67,297.83,179.43,296.6,179.43Zm0-7.65V145.65h-5.37v26.13Z"/><path class="cls-1" d="M318.21,145.68v26.08a9.85,9.85,0,0,1-1.45,5.38c-1,1.53-2.06,2.29-3.29,2.29h-8.72c-.78,0-1.17-.63-1.17-1.9V139.91c0-1.27.39-1.9,1.17-1.9h8.71c1.24,0,2.34.77,3.3,2.32A9.84,9.84,0,0,1,318.21,145.68Zm-4.7,26.1V145.65H308.3v26.13Z"/><path class="cls-1" d="M330.54,179.43h-5.36c-1.26,0-2.35-.76-3.29-2.27a9.85,9.85,0,0,1-1.41-5.32V145.63a10,10,0,0,1,1.41-5.33c.95-1.53,2-2.29,3.29-2.29h5.35c1.24,0,2.34.76,3.3,2.29a9.93,9.93,0,0,1,1.43,5.35v26.16a9.87,9.87,0,0,1-1.43,5.34C332.87,178.67,331.77,179.43,330.54,179.43Zm0-7.65V145.65h-5.36v26.13Z"/><path class="cls-1" d="M348,179.43h-6a3.76,3.76,0,0,1-3.17-2.14,9.56,9.56,0,0,1-1.32-5.14V139.91c0-1.27.39-1.9,1.17-1.9h2.38c.78,0,1.17.63,1.17,1.9v31.87H348c.77,0,1.16.64,1.16,1.9v3.85C349.19,178.8,348.8,179.43,348,179.43Z"/><path class="cls-1" d="M361.52,179.43h-5.36c-1.26,0-2.35-.76-3.3-2.27a9.85,9.85,0,0,1-1.41-5.32V145.63a10,10,0,0,1,1.42-5.33c.95-1.53,2-2.29,3.29-2.29h5.35c1.24,0,2.34.76,3.29,2.29a9.85,9.85,0,0,1,1.44,5.35v26.16a9.79,9.79,0,0,1-1.44,5.34C363.85,178.67,362.75,179.43,361.52,179.43Zm0-7.65V145.65h-5.36v26.13Z"/><path class="cls-1" d="M378.28,179.43h-5.07c-1.24,0-2.34-.76-3.28-2.27a9.77,9.77,0,0,1-1.42-5.32V145.65a10,10,0,0,1,1.43-5.34c1-1.53,2.06-2.3,3.3-2.3h5c1.25,0,2.35.77,3.3,2.3a9.88,9.88,0,0,1,1.44,5.34V147c0,1.25-.39,1.87-1.15,1.87h-2.39c-.78,0-1.16-.62-1.16-1.87v-1.32h-5.09v26.13h5.09v-9.22h-2.06c-.77,0-1.15-.64-1.15-1.9v-3.88c0-1.26.38-1.9,1.15-1.9h5.61c.76,0,1.15.64,1.15,1.9v15a9.84,9.84,0,0,1-1.44,5.37Q380.16,179.43,378.28,179.43Z"/><path class="cls-1" d="M388.84,179.43h-2.39c-.77,0-1.16-.63-1.16-1.9V139.91c0-1.27.39-1.9,1.16-1.9h2.39c.77,0,1.16.63,1.16,1.9v37.62C390,178.8,389.61,179.43,388.84,179.43Z"/><path class="cls-1" d="M404.92,177.64a3.57,3.57,0,0,1-2.94,1.79h-5c-1.25,0-2.34-.76-3.29-2.28a10,10,0,0,1-1.42-5.34V145.63a9.91,9.91,0,0,1,1.43-5.33c.95-1.53,2.05-2.29,3.29-2.29h5c1.24,0,2.35.77,3.31,2.32a9.84,9.84,0,0,1,1.45,5.35v1.21c0,1.25-.38,1.88-1.16,1.88h-2.39c-.76,0-1.15-.63-1.15-1.88v-1.24h-5v26.13h5v-1.45c0-1.26.39-1.9,1.15-1.9h2.39c.78,0,1.16.64,1.16,1.9v1.45A9.8,9.8,0,0,1,404.92,177.64Z"/><path class="cls-1" d="M419.07,179.43H413.7c-1.25,0-2.35-.76-3.29-2.27a9.85,9.85,0,0,1-1.41-5.32V145.63a10,10,0,0,1,1.42-5.33c.95-1.53,2-2.29,3.28-2.29h5.35c1.25,0,2.35.76,3.3,2.29a9.85,9.85,0,0,1,1.44,5.35v26.16a9.79,9.79,0,0,1-1.44,5.34C421.4,178.67,420.3,179.43,419.07,179.43Zm0-7.65V145.65H413.7v26.13Z"/><path class="cls-2" d="M104.32,190.91l-2.06,17.64H99.39l2.68-17.64Zm5.81,0L108,208.55H105.2l2.7-17.64Z"/><path class="cls-2" d="M127.3,246.28l-1.11-11.55h-5.81l-1.11,11.55c-.15,1.53-.6,2.3-1.36,2.3h-2.84c-.45,0-.81-.35-1.08-1a4.82,4.82,0,0,1-.28-2.37l5.47-56.44c.14-1.53.58-2.3,1.33-2.3h5.55c.75,0,1.2.77,1.35,2.3l5.45,56.44a5.2,5.2,0,0,1-.28,2.37c-.28.68-.64,1-1.06,1h-2.86C127.89,248.58,127.44,247.81,127.3,246.28Zm-2.22-23-1.8-18.59-1.79,18.59Z"/><path class="cls-2" d="M148,248.58H141q-2.17,0-3.74-3.21a17.43,17.43,0,0,1-1.56-7.71V189.29q0-2.85,1.38-2.85h2.81q1.38,0,1.38,2.85v47.82H148c.9,0,1.36.95,1.36,2.85v5.77C149.4,247.63,148.94,248.58,148,248.58Z"/><path class="cls-2" d="M176.54,245.89q-1.47,2.69-3.46,2.69h-5.9q-2.2,0-3.87-3.42a18,18,0,0,1-1.68-8V197.87a17.89,17.89,0,0,1,1.69-8q1.68-3.44,3.88-3.44h5.86q2.2,0,3.91,3.48a18,18,0,0,1,1.71,8v1.82c0,1.87-.45,2.81-1.37,2.81H174.5c-.91,0-1.36-.94-1.36-2.81v-1.86h-6v39.2h6v-2.18c0-1.9.45-2.84,1.36-2.84h2.81c.92,0,1.37.94,1.37,2.84v2.18A17.54,17.54,0,0,1,176.54,245.89Z"/><path class="cls-2" d="M193,248.58h-6.12c-1.48,0-2.77-1.14-3.89-3.42a18.1,18.1,0,0,1-1.67-8V189.29q0-2.85,1.38-2.85h2.79c.91,0,1.37.95,1.37,2.85v47.82h6.22V189.29q0-2.85,1.35-2.85h2.81q1.38,0,1.38,2.85v47.78a18,18,0,0,1-1.71,8.07Q195.24,248.58,193,248.58Z"/><path class="cls-2" d="M205.52,248.58h-2.81c-.91,0-1.37-1-1.37-2.85V189.29c0-1.9.46-2.85,1.37-2.85h2.81q1.38,0,1.38,2.85v56.44Q206.9,248.58,205.52,248.58Z"/><path class="cls-2" d="M226.82,198v39.12a18.1,18.1,0,0,1-1.7,8.07q-1.71,3.44-3.88,3.44H211c-.92,0-1.37-1-1.37-2.85V189.29c0-1.9.45-2.85,1.37-2.85h10.27q2.19,0,3.9,3.48A18.13,18.13,0,0,1,226.82,198Zm-5.54,39.16v-39.2h-6.14v39.2Z"/><path class="cls-2" d="M242.46,246.28l-1.11-11.55h-5.81l-1.11,11.55c-.16,1.53-.61,2.3-1.36,2.3h-2.85c-.44,0-.8-.35-1.07-1a4.94,4.94,0,0,1-.29-2.37l5.47-56.44c.14-1.53.59-2.3,1.34-2.3h5.54c.76,0,1.21.77,1.36,2.3L248,245.18a5.06,5.06,0,0,1-.29,2.37c-.28.68-.63,1-1,1h-2.87C243.05,248.58,242.6,247.81,242.46,246.28Zm-2.22-23-1.8-18.59-1.8,18.59Z"/><path class="cls-2" d="M268.05,198v39.12a18.1,18.1,0,0,1-1.7,8.07c-1.13,2.29-2.43,3.44-3.88,3.44H252.19q-1.38,0-1.38-2.85V189.29q0-2.85,1.38-2.85h10.26q2.21,0,3.9,3.48A18.13,18.13,0,0,1,268.05,198Zm-5.54,39.16v-39.2h-6.14v39.2Z"/><path class="cls-2" d="M282.6,248.58h-6.33c-1.48,0-2.77-1.14-3.88-3.4a18,18,0,0,1-1.66-8V197.87a18.17,18.17,0,0,1,1.67-8q1.68-3.44,3.87-3.44h6.31c1.47,0,2.76,1.15,3.89,3.44a18,18,0,0,1,1.69,8v39.24a17.83,17.83,0,0,1-1.69,8Q284.77,248.58,282.6,248.58Zm0-11.47v-39.2h-6.33v39.2Z"/><path class="cls-2" d="M317.64,198v39.12a18.1,18.1,0,0,1-1.7,8.07q-1.71,3.44-3.88,3.44H301.77c-.91,0-1.37-1-1.37-2.85V189.29c0-1.9.46-2.85,1.37-2.85H312q2.19,0,3.9,3.48A18.13,18.13,0,0,1,317.64,198Zm-5.54,39.16v-39.2H306v39.2Z"/><path class="cls-2" d="M333.41,248.58h-7.82q-2.18,0-3.73-3.21a17.58,17.58,0,0,1-1.54-7.71V189.29c0-1.9.46-2.85,1.37-2.85H333.3c.91,0,1.37.95,1.37,2.85v5.81c0,1.88-.46,2.81-1.37,2.81h-7.44v13.85h6.21c.92,0,1.38.94,1.38,2.84v5.82q0,2.85-1.38,2.85h-6.21v13.84h7.55q1.38,0,1.38,2.85v5.77Q334.79,248.58,333.41,248.58Z"/><path class="cls-2" d="M362.22,197.91h-4.13v47.82q0,2.85-1.38,2.85H353.9c-.91,0-1.37-1-1.37-2.85V197.91H348.4c-.92,0-1.38-.93-1.38-2.81v-5.81q0-2.85,1.38-2.85h13.82q1.38,0,1.38,2.85v5.81C363.6,197,363.14,197.91,362.22,197.91Z"/><path class="cls-2" d="M378,248.58h-6.11q-2.22,0-3.9-3.42a18.1,18.1,0,0,1-1.67-8V189.29q0-2.85,1.38-2.85h2.79q1.38,0,1.38,2.85v47.82H378V189.29c0-1.9.45-2.85,1.36-2.85h2.81c.91,0,1.37.95,1.37,2.85v47.78a18,18,0,0,1-1.71,8.07Q380.15,248.58,378,248.58Z"/><path class="cls-2" d="M397.39,248.58h-5.58c-1.48,0-2.77-1.14-3.89-3.42a18.22,18.22,0,0,1-1.67-8v-2.18c0-1.9.45-2.84,1.36-2.84h2.81c.91,0,1.37.94,1.37,2.84v2.18h5.6V223.27h-5.58c-1.48,0-2.77-1.15-3.89-3.45a18.21,18.21,0,0,1-1.67-8V197.91a18.29,18.29,0,0,1,1.67-8c1.12-2.3,2.41-3.46,3.89-3.46h5.58q2.21,0,3.87,3.44a18,18,0,0,1,1.68,8v1.9c0,1.87-.46,2.81-1.36,2.81h-2.81c-.92,0-1.38-.94-1.38-2.81v-1.86h-5.6v13.85h5.6c1.47,0,2.76,1.14,3.87,3.44a18,18,0,0,1,1.68,8v14a18,18,0,0,1-1.68,8C400.15,247.44,398.86,248.58,397.39,248.58Z"/><path class="cls-2" d="M426.3,227.5h-5.59v18.23q0,2.85-1.35,2.85h-2.81q-1.38,0-1.38-2.85V189.29q0-2.85,1.38-2.85h9.77c1.45,0,2.74,1.16,3.88,3.46a18.1,18.1,0,0,1,1.7,8v18a18.1,18.1,0,0,1-1.7,8.07Q428.49,227.5,426.3,227.5Zm.05-11.47V197.91h-5.64V216Z"/><path class="cls-2" d="M438.76,248.58H436q-1.38,0-1.38-2.85V189.29q0-2.85,1.38-2.85h2.81q1.38,0,1.38,2.85v56.44Q440.14,248.58,438.76,248.58Z"/><path class="cls-2" d="M455.91,248.58h-7.82c-1.45,0-2.7-1.07-3.73-3.21a17.58,17.58,0,0,1-1.55-7.71V189.29q0-2.85,1.38-2.85h11.6q1.38,0,1.38,2.85v5.81c0,1.88-.46,2.81-1.38,2.81h-7.43v13.85h6.21c.92,0,1.38.94,1.38,2.84v5.82q0,2.85-1.38,2.85h-6.21v13.84h7.55c.92,0,1.37.95,1.37,2.85v5.77C457.28,247.63,456.83,248.58,455.91,248.58Z"/><path class="cls-2" d="M471.11,248.58h-5.59q-2.2,0-3.89-3.42a18.22,18.22,0,0,1-1.67-8v-2.18c0-1.9.45-2.84,1.36-2.84h2.81c.92,0,1.37.94,1.37,2.84v2.18h5.61V223.27h-5.59q-2.2,0-3.89-3.45a18.21,18.21,0,0,1-1.67-8V197.91a18.29,18.29,0,0,1,1.67-8c1.12-2.3,2.42-3.46,3.89-3.46h5.59q2.19,0,3.87,3.44a18.17,18.17,0,0,1,1.67,8v1.9c0,1.87-.45,2.81-1.36,2.81h-2.81c-.92,0-1.37-.94-1.37-2.81v-1.86H465.5v13.85h5.61c1.46,0,2.75,1.14,3.87,3.44a18.11,18.11,0,0,1,1.67,8v14a18.1,18.1,0,0,1-1.67,8C473.86,247.44,472.57,248.58,471.11,248.58Z"/><path class="cls-2" d="M485,190.91l-2.67,17.64h-2.26l2.12-17.64Zm5.81,0-2.67,17.64H485.9L488,190.91Z"/><path class="cls-3" d="M10.17,89.15c-6.88-.62-12.75-13.47-9-22,1.71-3.88,6.1-8.45,11-8,3.23.3,5.37,2.65,6.46,3.84a16,16,0,0,1,3.54,14.16C20.74,83.28,15.29,89.61,10.17,89.15Z"/><path class="cls-3" d="M30.43,32.26c-8,3-10.83,17.86-4,24,3.79,3.41,10.36,4,15,1,6.45-4.11,7.54-13.95,3-20C41.25,33,35.18,30.48,30.43,32.26Z"/><path class="cls-3" d="M51.17,29.15c-2.81-9-.37-21.95,8-25,6.45-2.35,14.14,2,18,7,8.54,11,3.11,31.45-6,34C64.18,47.11,54.17,38.78,51.17,29.15Z"/><path class="cls-3" d="M97.17,44.27c-9.91-8.52-5-24.74-4-28,.94-3.08,2-6.54,5.14-9.71,6-6.14,17.45-9,24-4,5.69,4.34,5.15,12.64,4.57,21.71-.59,9.32-1.14,18-8,22.29C112.34,50.69,102.81,49.12,97.17,44.27Z"/><path class="cls-3" d="M140,68.86c-8.57-9.74-9.68-22.44-8-30.85a62,62,0,0,1,2.28-7.43c3.66-10.7,5.49-16,9.72-19.43,6.11-4.89,13.91-4.17,15.43-4,8.93,1,14.28,7.36,17.71,11.43,8.22,9.75,9.36,20.66,9.71,24.57.55,6,1.62,17.8-6.28,27.43-1.52,1.85-7,8.48-16,9.71C151.63,82.06,142.09,71.21,140,68.86Z"/><path class="cls-3" d="M87.89,299.67C68.28,303,51.9,285.57,49,282.53c-7.56-8-10.86-16.7-17.15-33.71a245.85,245.85,0,0,1-12-41.15c-4.27-21.64-12.39-65.4,4-110.28,4.68-12.8,8.68-18.4,11.43-21.72,20-24.13,52.55-23.52,55.43-23.42,7,.23,23.18.78,37.14,12.57,11,9.32,15,20.83,17.15,27.43,6.93,21.18,3.08,40-1.72,50.85-3.42,7.73-6.7,10.27-8.57,11.43-5.69,3.54-9.23,1.09-18.86,4a49.43,49.43,0,0,0-15.42,8c-2.94,2.16-9.42,6.92-13.15,13.72-5.9,10.75-2.75,22.68,0,33.14,2.24,8.5,7,18.81,16.57,39.43A50.15,50.15,0,0,1,109,270c.5,5,1.23,12.34-2.86,18.86C100.73,297.5,90.19,299.29,87.89,299.67Z"/><path class="cls-4" d="M73,161.65a8.16,8.16,0,0,1-5.43-2.85c-1.38-1.67-2.79-4.82-.86-12.86a57,57,0,0,1,13.43-24.57c4.16-4.59,9-9.77,17.14-13.15,3.86-1.59,10.37-4.17,18-2.28,2.67.66,7.61,1.88,10.57,6.28,4.48,6.66,2.17,17.24-3.14,20.29-1.59.91-2.75.75-6.28.86-5.8.17-12.69.38-18,2.28C93.25,137.5,85,142.59,83,150.22c-.67,2.5-.54,4.81-2.57,7.43C79.88,158.33,77.1,161.92,73,161.65Z"/></g></g></svg>