<svg xmlns="http://www.w3.org/2000/svg" viewBox="0 0 187.26 300.09"><defs><style>.cls-1{fill:#2f4a99;}.cls-2{fill:#fff;}</style></defs><g id="Capa_2" data-name="Capa 2"><g id="Capa_1-2" data-name="Capa 1"><path class="cls-1" d="M10.17,89.15c-6.88-.62-12.75-13.47-9-22,1.71-3.88,6.1-8.45,11-8,3.23.3,5.37,2.65,6.46,3.84a16,16,0,0,1,3.54,14.16C20.74,83.28,15.29,89.61,10.17,89.15Z"/><path class="cls-1" d="M30.43,32.26c-8,3-10.83,17.86-4,24,3.79,3.41,10.36,4,15,1,6.45-4.11,7.54-13.95,3-20C41.25,33,35.18,30.48,30.43,32.26Z"/><path class="cls-1" d="M51.17,29.15c-2.81-9-.37-21.95,8-25,6.45-2.35,14.14,2,18,7,8.54,11,3.11,31.45-6,34C64.18,47.11,54.17,38.78,51.17,29.15Z"/><path class="cls-1" d="M97.17,44.27c-9.91-8.52-5-24.74-4-28,.94-3.08,2-6.54,5.14-9.71,6-6.14,17.45-9,24-4,5.69,4.34,5.15,12.64,4.57,21.71-.59,9.32-1.14,18-8,22.29C112.34,50.69,102.81,49.12,97.17,44.27Z"/><path class="cls-1" d="M140,68.86c-8.57-9.74-9.68-22.44-8-30.85a62,62,0,0,1,2.28-7.43c3.66-10.7,5.49-16,9.72-19.43,6.11-4.89,13.91-4.17,15.43-4,8.93,1,14.28,7.36,17.71,11.43,8.22,9.75,9.36,20.66,9.71,24.57.55,6,1.62,17.8-6.28,27.43-1.52,1.85-7,8.48-16,9.71C151.63,82.06,142.09,71.21,140,68.86Z"/><path class="cls-1" d="M87.89,299.67C68.28,303,51.9,285.57,49,282.53c-7.56-8-10.86-16.7-17.15-33.71a245.85,245.85,0,0,1-12-41.15c-4.27-21.64-12.39-65.4,4-110.28,4.68-12.8,8.68-18.4,11.43-21.72,20-24.13,52.55-23.52,55.43-23.42,7,.23,23.18.78,37.14,12.57,11,9.32,15,20.83,17.15,27.43,6.93,21.18,3.08,40-1.72,50.85-3.42,7.73-6.7,10.27-8.57,11.43-5.69,3.54-9.23,1.09-18.86,4a49.43,49.43,0,0,0-15.42,8c-2.94,2.16-9.42,6.92-13.15,13.72-5.9,10.75-2.75,22.68,0,33.14,2.24,8.5,7,18.81,16.57,39.43A50.15,50.15,0,0,1,109,270c.5,5,1.23,12.34-2.86,18.86C100.73,297.5,90.19,299.29,87.89,299.67Z"/><path class="cls-2" d="M73,161.65a8.16,8.16,0,0,1-5.43-2.85c-1.38-1.67-2.79-4.82-.86-12.86a57,57,0,0,1,13.43-24.57c4.16-4.59,9-9.77,17.14-13.15,3.86-1.59,10.37-4.17,18-2.28,2.67.66,7.61,1.88,10.57,6.28,4.48,6.66,2.17,17.24-3.14,20.29-1.59.91-2.75.75-6.28.86-5.8.17-12.69.38-18,2.28C93.25,137.5,85,142.59,83,150.22c-.67,2.5-.54,4.81-2.57,7.43C79.88,158.33,77.1,161.92,73,161.65Z"/></g></g></svg>